<svg xmlns="http://www.w3.org/2000/svg" viewBox="0 0 468 114" fill="#008CFF">
  <!-- V -->
  <path d="M77.8 2.4c4.2 7 6.1 14.2 6.1 23.4 0 29.1-24.8 66.9-45 90.8H7.6L0 8.4l30.6-2.9 4.6 56.4C45.4 44.7 55 25.2 55 12.4c0-8.8-2.7-14.8-5.9-19.6L77.8 2.4z"/>
  <!-- e -->
  <path d="M120.2 53.8c0-12.2 7-26.2 19-26.2 7.4 0 10.8 5.6 10.8 13.2 0 13.4-9.4 27.2-19.4 27.2-7 0-10.4-5.2-10.4-14.2zm59.4-19.8c0-24.4-16.4-34-35.4-34-31.2 0-55.8 28.6-55.8 60.6 0 21 13 34.4 34 34.4 30.4 0 57.2-27.8 57.2-61z"/>
  <!-- n -->
  <path d="M193.4 92.6L205 33.8c3.2-15.2 7.8-31.8 12-45.6l28.6-2.2-3.8 18.6h.6c8.8-12.4 19.8-20.6 33.4-20.6 14.4 0 21.2 9.4 21.2 23 0 4.4-.8 11-2 16L284 92.6h-31.4l10.6-66.4c.6-3 1-7 1-9.6 0-5.6-2.4-8.6-7.6-8.6-8 0-18 10.8-22.2 30.2L225 92.6h-31.6z"/>
  <!-- m -->
  <path d="M303 92.6l11.6-58.8c3.2-15.2 7.6-31.8 11.8-45.6l28.8-2.2-4 18.6h.6c8.8-12.4 19.6-20.6 33.2-20.6 11 0 18.4 6 21 16.6 9.4-11.4 20.2-16.6 33-16.6 14 0 21.6 9.4 21.6 23 0 4.4-.8 11-2 16l-11.2 69.6h-31.2l11-68.4c.4-2.4.8-5.8.8-8.4 0-5.6-2.4-8.2-7.4-8.2-7.4 0-16.8 9.8-21.2 30.6l-9.4 54.4h-31.2l11-68.4c.4-2.4.8-5.8.8-8.4 0-5.6-2.4-8.2-7.4-8.2-7.6 0-17 10.2-21.2 30.6l-9.4 54.4H303z"/>
  <!-- o -->
  <path d="M507.2 34c0-24.4-14.6-34-33.2-34-31.8 0-57.6 30-57.6 61.8 0 21.2 13 33.2 33.6 33.2 31 0 57.2-28.8 57.2-61zm-59.4 24.6c0-17.2 10.4-32 22.6-32 8.2 0 11.4 6.4 11.4 14 0 16.6-10.2 31.4-22.6 31.4-7.8 0-11.4-5.2-11.4-13.4z"/>
</svg>
